<?xml version="1.0" encoding="utf-8"?>
<!-- Generator: Adobe Illustrator 25.1.0, SVG Export Plug-In . SVG Version: 6.00 Build 0)  -->
<svg version="1.1" id="Layer_1" xmlns="http://www.w3.org/2000/svg" xmlns:xlink="http://www.w3.org/1999/xlink" x="0px" y="0px"
	 viewBox="0 0 500 500" style="enable-background:new 0 0 500 500;" xml:space="preserve">
<style type="text/css">
	.st0{fill:#FFFFFF;}
</style>
<g>
	<path class="st0" d="M291.1,469.6c4.2,2.5,7.5,3.1,10.8-1.6c2.7-3.8,6.5-6.7,9.7-10.3c2.3-2.6,3.7-2.2,5,0.8
		c2.3,5.3,2.7,10.9,1.9,16.5c-0.3,2.5-1.6,4.4-4.5,4.7c-1.6,0.2-3.4,1.1-4.8,0.6c-8.3-2.9-14.6,1.4-21.6,4.8
		c-27.2,13.2-54,11.4-79.9-3.7c-3-1.7-5.6-2.5-9.1-1.8c-13.2,2.8-17.1-1.2-14.5-14.6c0.6-3.3,0.5-7.8,4.1-8.8c2.8-0.7,4,3.6,6.1,5.5
		c3.3,2.9,6.5,5.8,9.7,8.7c1.9,1.8,3.9,1.4,5.2-0.3c1.6-2.1-1-2.7-2.1-3.4c-8.4-5.5-15-13-22.5-20.2c-4.6,8-6.1,16.2-5.8,24.7
		c0.2,4.4-1.3,5.1-5,3.9c-5.6-1.9-10.5-4.9-14.2-9.6c-2.2-2.7-4.3-3.5-7.9-3c-11.8,2-21.3-3.3-26.5-14.2c-1-2.1-2.1-3.4-4.6-3.8
		c-8.4-1.3-14.1-6.3-17.7-13.8c-1.3-2.6-2.6-4.3-5.6-5.1c-5.9-1.6-9.6-5.9-11-11.7c-0.9-3.4-2.5-5-5.8-6.2
		c-18.4-6.6-31.3-24.2-31.8-43.8c-0.1-3.2-1.2-4.8-3.9-6.2c-7.2-3.8-10.7-10.2-10.5-18.2c0.1-3.1-0.5-5.4-2.9-7.6
		c-5.1-4.8-6.9-11-5.7-17.8c0.4-2.6,0.2-4.6-1.6-6.9c-5.5-6.8-6.6-14.4-2.5-22.3c1.4-2.7,1-4.4-0.7-6.8c-11.1-16.1-11.2-38-0.3-54.3
		c1.6-2.4,2.4-4.2,0.8-7.2c-3.9-7.6-2.9-15.2,2.5-21.8c1.8-2.2,2.4-4.1,1.9-6.8c-1.4-7.4,0.9-13.7,6.3-18.7c2-1.8,2.6-3.5,2.3-6.1
		c-1.3-9.6,2.2-17,10.6-21.9c1.9-1.1,2.7-2.2,2.7-4.6c0.2-15.2,5.7-27.5,20.1-34.4c1.8-0.9,2.1-2.3,2.6-3.8
		c2.5-7.6,6.7-13.7,14.9-15.9c2.1-0.6,2.7-2.1,3.4-3.8c6.3-15.1,16.6-25.3,33.3-27.9c2.3-0.4,3.3-1.8,4.4-3.5
		c3.8-6.2,9.4-9.4,16.7-9.3c2.1,0,3.2-0.7,4.4-2.3c4.2-6.3,10.4-8.8,17.8-8.2c2.2,0.2,3.6-0.3,5.2-1.9c11.5-10.9,24.9-15.1,40.4-11
		c2.7,0.7,4.6,0.3,6.8-1.5c5.2-4.2,11.2-4.9,17.4-2.2c2.7,1.2,4.8,1.3,7.5-0.3c6.1-3.5,12.5-3.5,18.4,0.7c1.5,1,2.5,1.6,4.3,0.5
		c6.2-3.6,12.6-3,18.7,0.3c3.3,1.8,6.6,2.2,10.4,1.6c14-2,26.6,1.3,37,11.3c1.5,1.4,2.9,2.3,5.2,2.2c7.5-0.2,13.9,2.2,18.3,8.6
		c1.3,1.9,2.8,2.2,5,2.3c7.3,0.2,12.8,3.7,16.2,10.1c1.1,2.2,2.1,2.8,4.7,3c15.2,1,29.2,13.5,32.5,28.9c0.4,1.9,1.7,1.7,2.5,1.9
		c9.4,1.9,14.1,8.2,16.2,17c0.3,1.5,0.9,2.2,2.1,2.7c15.1,6.6,19.3,19.7,20.5,34.4c0.6,7.2,1,14.5-0.6,21.6c-0.3,1.5-0.5,3,1.3,3.6
		c1.8,0.7,3.6,2.3,5.6,1.6c1.9-0.7,1.2-2.8,1.2-4.3c0-3.4-1.4-6.3-3.9-8.7c-1.2-1.1-2.6-2.1-2.8-3.9c-0.1-1.6-0.8-3.6,0.6-4.6
		c1.6-1.2,3.1,0.3,4.3,1.3c6.4,5,8.8,11.8,8.1,19.7c-0.3,3-0.1,5.1,2.2,7.2c5.2,4.9,7.3,11.1,6,18.2c-0.4,2.3-0.7,4.3,1.3,6.4
		c6.1,6.8,6.8,14.6,2.9,22.7c-1.2,2.5-1.1,4,0.5,6.3c11.5,16.9,11.5,38.1,0.1,55.1c-1.4,2.1-2.1,3.7-0.7,6.3
		c4.2,7.8,3.1,15.5-2.2,22.3c-1.7,2.2-2.4,4.1-1.9,6.8c1.4,7.3-0.9,13.6-6.2,18.7c-1.4,1.4-2.8,2.4-2.4,4.9
		c1.3,9.6-3,16.5-11.4,20.8c-2.3,1.2-3.1,2-2.8,4.9c2,23.3-21.4,47.5-45,47c-5.1-0.1-8.6-2-9.4-7.1c-0.8-5.1-3.4-5.3-7.7-4.3
		c-12.1,2.7-24.3,3.6-36.7,1.7c-3.8-0.6-6.5,0.8-7.6,4.5c-4.1,13.3-12.2,24.1-21.9,33.9c-2,2-1.8,3.5-0.6,5.7
		c2.7,5,4.3,10.3,5.6,15.8c0.4,1.7-0.7,4.8,2.1,4.8c2.6,0.1,4.3-2.6,5.8-4.6c1.9-2.5-1.1-3-2.2-4c-5.2-4.7-6.9-10.5-5.9-17.2
		c0.8-5.2,3-6.4,8-4.4c7.3,2.9,11.8,9.7,10.9,17.6c-0.3,3.1,0.4,3.6,3.1,3.7c6.9,0.3,13-1.2,17.3-7.1c2.1-2.9,2.3-4.8-1.8-6.4
		c-11.7-4.3-18.6-12.7-20.5-25.1c-1-6.3,0.5-7.9,7-7.3c12.7,1.1,22.3,10,24.5,22.4c0.8,4.9,2.3,5.8,6.8,3.8c2.2-1,4.1-2.3,5.6-4.2
		c4.1-4.9,3.9-6-1.6-8.9c-5.9-3.2-8.1-8.5-8.6-14.8c-0.3-3.3,1.8-4.8,5.1-4.9c6.6-0.3,12.3,3.6,15,10.4c2.2,5.6,3.9,5.9,7.7,1.2
		c0.1-0.1,0.2-0.3,0.3-0.4c1.7-2.6,3.6-6.5,6.9-4.1c3.1,2.3-0.4,5.5-1.8,8c-2.3,4.1-6.1,6.7-10.9,7.2c-2.2,0.2-2.4,1-3.1,2.9
		c-2.8,8.4-9,13.5-17.6,15.2c-3,0.6-4.4,0.9-5.3,4.7c-2.2,8.8-14.2,15.5-24,13.8c-4.9-0.8-8.4-0.5-11.4,4c-2.7,3.9-7,6.2-11.5,7.9
		c-5.4,2-6.5,1.4-6.4-4.3c0.1-6.6-1.2-12.9-3.6-19.1c-1.3-3.4-2.8-4.2-5.6-1.2C307.5,457.6,300,464.3,291.1,469.6z M171.7,62
		c-6-4.7-6.1-4.8-0.8-10.9c3.9-4.5,7.9-8.8,11.9-13.2c-13-4.4-10.2-5.3-17.5,4.7C158.7,51.7,161.1,58.1,171.7,62
		c6.9,3.4,13.7,6.8,20.8,10.3c0.7-3.6-1.1-5.5-2.4-7.7c-3.5-6.1-1.7-14.8,3.9-19c1-0.7,2.4-2.1,2.9,0.1c1.2,6.1,4.9,12.3,1.2,18.4
		c-3.2,5.2-2.2,9.9,1.5,13.3c8.6,8,16.1,17.1,24.9,24.9c0.8,0.7,1.8,1.3,2.7,1.9c2.5,1.5,4.4,0.9,4.8-1.9c0.7-5.8,1.1-11.6-2.5-16.8
		c-2-2.8-4.3-4-7.8-3.5c-10,1.4-19.6-7-20.3-17.8c3.1,0.9,6.1,2.4,9.2,2.7c8.3,0.7,14.7,3.5,17.7,11.9c0.5,1.3,1.5,3.2,2.9,2.6
		c1.9-0.7,0.9-2.8,0.6-4.3c-2.1-10.8-6.6-14.5-17.9-15c-7.8-0.3-13-4.2-14.1-10.3c-0.4-2.5,0.2-4,3.1-3c4.3,1.5,8.6,2.9,11,7.3
		c0.8,1.5,1.9,2.8,4.1,2.7c-5.1-10-15.5-12.5-23.7-17.8c-1.8-1.2-2.6,0.8-3.4,1.7c-4.6,5.1-9,10.4-13.6,15.5
		C175.8,59.9,174.5,62,171.7,62z M73.1,345.1c8.3,0,16.6,1.2,24.4-0.3c11.7-2.2,22.9-1.4,34.3,1.2c26.8,6.1,48.7-5.5,69.4-20.7
		c8.3-13,17.2-25.8,24.8-39.1c8-14.1,8.7-30.5,7.1-46.6c-0.8-8.2-3.3-16.1-9.2-22.2c-4.8-5-9.5-9.9-13.9-15.2
		c-4.9-5.9-9.2-5.8-14.5-0.2c-2.6,2.9-5.3,5.6-9.5,5.7c-3.1,0.1-6.1,0.5-9,1.8c-2.7,1.2-3.2,0.2-2.6-2.4c2.4-9.9,11-15.6,21.2-14.2
		c2.5,0.3,6.5,2.7,7.4,0c1-3.2-3.4-4.5-5.9-5.9c-8.4-4.6-15.2-2.6-19.9,5.6c-1.5,2.6-3.3,4.7-6.1,5.9c-4,1.7-8,3.4-11.2,6.5
		c-0.6,0.6-1.3,1.5-2.3,0.8c-0.9-0.6-0.8-1.5-0.8-2.4c-0.3-11.7,7.4-20.1,19-20.8c2.5-0.2,5.1-0.2,7.6-0.5c1.3-0.2,3.2-0.4,3.6-2
		c0.4-1.8-1.6-2.2-2.8-2.7c-3.4-1.6-6.9-3.2-10.4-4.7c-5.2-2.1-10.4-4.3-16.2-3.6c-7.4,0.8-11.2,6.1-9.1,13.2c0.9,3,0.8,5.7-0.4,8.4
		c-1.7,3.8-3.7,7.5-5.5,11.2c-1.3,2.6-2.3,1.5-3.3-0.2c-3.3-5.3-4.2-18.5,1.8-22.8c1.4-1,3.1-2.3,2.8-5.1
		c-5.7,2.2-10.3,5.7-9.7,11.5c1.3,12.6-9.2,20.3-11.4,32c-8.3-11.6-7.2-23.7,2-32.6c6.9-6.7,13.2-13.9,23-18.6
		c-10.6-1.1-19.3,1.7-27.9,4.2c-4.3,1.2-8.7,4.3-8.8,8.7c-0.2,12.2-12.5,16.6-15.4,27.6c-6.1-12-4.4-26.9,9.4-31.2
		c4-1.2,7-4.7,10.9-8.9c-15.3,0.8-26.9,6.2-35.3,17.3c-3.9,5.2-5.7,11.4-1.2,17.6c1.4,2,1.3,4.5,1.3,6.8c0.1,4.1-0.5,8.3,0.8,12.4
		c0.3,1,0.9,2.3-0.1,3c-1.2,0.9-2.4-0.2-3.5-0.7c-10.5-5.3-13.5-15.3-7.7-25.5c1.5-2.7,4.1-5.1,2.9-9.2c-4.7,3.6-9.1,7-13.5,10.4
		c-1.8,1.4-1.4,3-1.1,4.9c1.4,7.2,0.1,13.8-5.8,18.7c-2.3,1.9-1.6,3.5-0.6,5.7c7,15.4,6.9,30.9,0.1,46.3c-1.3,2.9-1.3,4.8,1.3,7
		c5.3,4.6,6.4,10.8,5.1,17.4c-0.5,2.6-0.3,4.3,1.6,6.3c4.1,4.3,5.9,9.5,4.9,15.5c-0.2,1.4-1,3.1,0.5,4
		C73.7,329.2,73.6,337.3,73.1,345.1z M337.8,216.2c-3.9-4.8-7.6-7.9-12.2-9.7c-3.2-1.2-5.3-3.6-6.9-6.5c-5.6-9.9-20.3-10.1-26.3-0.2
		c-4,6.5-6.3,13.4-3.5,21.2c2.8,7.8,1.8,15.2-1.9,22.6c-6.7,13.2-8.2,27.3-7,41.8c0.7,8.9,2.1,18.6,9.7,24
		c9.8,6.9,17.4,16,26.5,23.3c17.2,13.9,37.3,18.6,59.2,12.3c8.2-2.4,16.3-2.9,24.6-0.8c7.6,1.9,15.4,1.7,23.2,1.5
		c3.2-0.1,5.1-0.9,4.9-4.7c-0.4-6.4,2.3-11.6,7.2-15.7c1.7-1.4,2.5-2.7,2-5.1c-1.3-6.2,0.8-11.4,5.2-15.8c1.6-1.6,2.2-2.9,1.6-5.2
		c-2.2-7.5-0.3-13.9,5.7-19c1.5-1.3,2.3-2.2,1.2-4.4c-7.8-15.9-7.7-32.1-0.6-48.2c1.2-2.6,0.9-4.1-1.3-6c-5.2-4.5-7.2-10.5-5.4-17.2
		c1.5-5.6-1.8-7.5-6-10.2c-0.1,7.6,3.4,14,2.3,20.7c-1.1,7.3-5.7,12-12.6,15.6c0.2-3.7,0.6-6.6,0.5-9.4c-0.2-6.6,0.2-12.9,4.9-18.4
		c2.3-2.6,2-6.2,0.3-9.3c-4.9-9.2-12.9-14.5-22.8-18.7c1.3,5.6,5,8.4,8.2,11.5c6.4,6.1,9.4,13.2,6.7,22c-0.4,1.4-0.5,3.3-1.9,3.7
		c-2,0.5-1.8-1.8-2.5-2.9c-1.3-2.4-3.1-4.5-5.2-6.2c-4.8-4-7-9-6.3-15.3c0.4-3.9-0.6-7.4-3.1-10.6c-6.9-8.5-25.2-14-36-10.4
		c3.1,2.1,6,4.2,9,6.2c3.2,2.1,6.4,4.1,9.6,6.2c8.5,5.5,12.3,20.6,7,29c-3-5.2-7.6-8.8-11.6-12.9c-3.6-3.6-5.5-7.9-6.1-13
		c-0.9-7.5-2.9-9.3-11.8-10.4c2.5,3.3,4.8,6.2,6.9,9.3c5.9,8.5,5.1,16.3-2.1,23.4c-0.7,0.7-1.3,1.9-2.6,1.4c-1-0.4-1-1.5-1-2.3
		c-0.1-4.1-2-7.7-3.2-11.4c-1.1-3.3-1.7-6.5-0.5-10.1c2-5.6,0.4-8.8-5.2-11.1c-3-1.2-6.2-2-9.5-1.9c-14.3,0.2-26.6,6.2-38.6,13
		c-0.9,0.5-2.3,0.9-2,2.8c7.8-1.1,14.4-5.3,21.8-6.8c11-2.2,21,5.7,21.3,17.3c-4.1-1.6-8.2-3-12.6-3.1c-4.1,0-7.3-1.4-10.4-3.9
		c-5.3-4.2-9.1-3.9-15.1,1c6.5,2.3,14.2,0.3,19.3,6.1C337.7,200.8,339.1,207.4,337.8,216.2z M222.9,136.5
		c-5.9-9.2-13.6-15-18.8-22.8c-1.7-2.5-4.3-1.5-6.6,0.5c-6.7,6-13.4,5.3-19.5-2c7-3.7,14-6.7,22.3-4.3c-3.9-3.5-8.3-4.5-12.7-2.5
		c-11.2,5.1-20.4-5.2-22.5-15.5c-0.3-1.6,0.2-3.3,2.3-2.3c6.8,3.2,14.9,3.6,20.3,9.8c2,2.4,4.8,3.7,8.7,3.1
		c-4.1-7.4-9.1-12.7-17.8-12.5c-5.1,0.1-9-2.1-12-6.2c-0.9-1.2-1.3-3-3.5-3.2c-2.7,4.5-5.4,8.9-6.8,14.4c2.8-1,4.3-5.3,6.5-3.6
		c2.4,2,2.3,5.8,0.9,9.1c-0.6,1.5-1.4,2.9-2.6,4.1c-9.7,10-8.6,27.5,2.4,36.8c1.2-2.2-0.2-3.7-1.4-5.2c-4.8-6.4-4.6-15.2,0.3-21.1
		c0.8-0.9,2.4-2.5,2.7-0.5c0.7,6.1,4.9,11.3,3.6,17.9c-2.4,11.6-0.8,13.9,11,17.6c-0.5-0.8-0.7-1.4-1.1-2c-7-9-6.8-16.5,0.7-25.3
		c0.8-1,2.7-3,3-0.9c1,6.8,5.7,13.4,2.2,20.5c-2.9,5.8-0.8,10.4,3.3,14.1c6,5.5,13.3,9,20.7,12.6c-8-5-7.7-14.1-12.1-21.4
		c12.4,2.1,17.5,7.4,18.2,18.5c0.5,7.8,4.9,12.2,12.7,13c2,0.2,3.1-0.6,3.7-2.3c1.7-4.7-0.3-11-4.9-12.4c-8.2-2.4-10.1-9.6-14-15.9
		c4.5-1.1,8,0.4,11.3,2c3.5,1.7,5.3,4.9,6.6,8.4c-0.6-5.6-2.6-10.6-6.5-14.6c-2.4-2.5-5.5-5.4-9-3.9c-8.2,3.6-16.1-0.2-24.1,0.3
		c-1.9,0.1-2.8-0.4-1.7-2.5c4.6-9.2,18.5-11.9,26-5C216.6,133.4,218.5,135.5,222.9,136.5z M327.4,111.6c1.5,1.7,3.5,1.7,4.7,1.1
		c6.8-3.4,14.1-2.3,21.2-2.6c1.2-0.1,2.6-1.3,3.4,0.2c0.7,1.2-0.5,2.4-1.1,3.4c-4.7,7.8-13.1,10.2-21,5.8
		c-8.4-4.7-16.3-4.3-24.6,0.4c-14.1,7.8-24.8,18.5-32.2,32.8c-2.6,5.1-4.1,10-3.6,15.5c0.3,4,2.6,5.3,6.3,3.7
		c4.9-2.1,7.7-7.5,6.3-13.5c-3-12.7,6.8-23.1,15.9-24.8c-0.8,6.2-1.7,12.2-2.4,18.2c-0.8,6.6-8.5,9-9.8,15.9
		c11.2-3,17.3-10.7,17-20.8c-0.1-3,1.1-5.6,2.5-8.2c1.8-3.1,3.6-6.3,5.4-9.4c0.5-0.9,0.3-2.4,1.9-2.2c1.2,0.1,1.7,1.3,2.3,2.2
		c4.2,6.8,2.3,16.2-4.4,21.4c-2.9,2.3-5.3,4.7-5.7,9.5c7.6-5,14.2-9.8,16.5-18.5c0.9-3.6,3.2-6.1,6.6-7.4c4.1-1.6,8.3-3.2,11.9-6.5
		c0.6,9.4-4.3,16.8-12.6,19c-3.2,0.8-5.6,1.8-6,6.3c8-3.4,15.1-6.8,19.5-14c2.5-4.1,5.6-7.5,9.4-10.3c6.5-4.8,11.5-11,15.2-18.2
		c1.8-3.4,1-5-3-5c-9.3-0.2-18.5,0.6-27.6,1.9C335.3,107.9,331.1,108.9,327.4,111.6z M321.2,90.1c7.3-5.3,10.4-14.2,7.7-21.7
		c-2.1-5.8-5.4-11-9.1-16c-1.6-2.2-3.1-2.4-5.4-1.1c-4.3,2.4-8.8,2.9-13.6,1.5c-4-1.2-7.5,0.1-10.3,3.2c-2.1,2.4-4,4.8-6,7.3
		c5.7-4.2,12.1-4.7,18.7-5.2c-2.3,9.9-9,14.4-18.2,12.1c-3-0.7-5.7-0.8-8.3,1.2c-7.5,5.7-10.9,13.8-13.8,23.3c4.1-1.9,4.7-4.9,6-7.4
		c1.4-2.6,2.8-5.1,5.7-6.3c4.4-1.7,8.8-3.3,12.9-5.7c2.2-1.4,3.1-0.2,2.7,2c-1.3,9-7.9,18.3-17.4,17.6c-3.7-0.3-6.4,1.5-8.4,4.1
		c-1.9,2.5-5,6.2-2.3,8.5c2.5,2.1,4.7-2,6.5-4.1c6.3-7.3,13.6-7.9,21.8-1.4c-5,2.8-9.7,5.9-15.5,6.3c-9.3,0.7-14.3,7.1-12.7,16.3
		c0.8,4.4,2.2,5,5.5,2.2c9.1-7.8,18.8-14.6,29.7-19.9c6.9-3.3,9.4-9.4,5.9-16.3c-3.3-6.5-2.4-13-2-19.6c0.1-2.2,0.9-2.4,2.7-1.4
		c6.3,3.6,9.5,12.5,7,19.4c-1,2.7-2.1,5.4-3,8.1c-0.2,0.8-0.1,2,0.4,2.5c0.7,0.8,1.6,0,2.3-0.5c5.6-3.6,9.3-17.2,5-22.1
		c-4.8-5.6-4.7-12.4-7-18.5c-1.1-2.8,0.1-3.1,2.6-2.5c10.2,2.2,15.1,10.7,11.4,20.4C321.2,80.7,320.3,85,321.2,90.1z M151,410.5
		c3.9-0.6,5.2,2,4.7,5.9c-1.7,12.6-8,22-20.1,26.8c-4.3,1.7-4.2,3.8-1.9,6.9c3.6,4.8,8.7,6.1,14.3,6.5c4.3,0.3,6.2-1,6.1-5.7
		c-0.2-7.9,3.8-13.2,10.9-15.7c4.1-1.5,6.8-0.3,7.6,4c1.5,7.4-0.4,13.6-6.5,18.3c-1.2,0.9-2.6,1.6-1.4,3.4c1.4,2.2,3.3,4.3,5.7,4.8
		c2.1,0.4,1.8-2.3,2-3.7c1.2-6.4,2.5-12.8,6.1-18.4c1.3-2,0.3-3-0.9-4.1c-9.9-10-18.1-21.2-22.4-34.8c-1-3.3-3.4-4.3-6.8-3.9
		c-13.4,1.8-26.7,1.6-39.7-2.8c-3.4-1.2-4,0.1-4.4,2.9c-0.6,4.9-2.7,8.6-8.3,9.1c-1.4,0.1-4-0.3-3.5,2.1c0.6,3.3,2.7,6,6,7.2
		c3.1,1.1,2.4-1.9,2.9-3.2c2.9-7.8,8.3-12,15.1-11.8c3.6,0.1,5.5,1.9,5.2,5.4c-0.4,6.3-3.2,11.5-8.9,14.6c-5,2.8-5.2,3.6-1.6,8
		c1.9,2.3,4.1,4.1,6.9,5.1c3.1,1.2,5,1.6,5.7-3.1C126.1,420.1,137.1,410.6,151,410.5z M140.1,131.3c-2-10.8-5.5-14.7-15.4-15.3
		c-7.5-0.4-15.2,0.5-22.7,1.4c-5.6,0.7-9.6,3.9-11.6,9.5c-0.7,2.1-1.7,4.3-3.6,5.3c-2.8,1.4-4.1,6.4-8.1,4.1
		c-2.3-1.3-0.3-9,2.6-11.9c1.6-1.5,3.6-2.3,5.6-3.2c1.7-0.7,3.7-1.1,5.5-3.7c-6,1.5-11.1,2.8-16.1,4.1c-2.2,0.5-2.9,1.3-2.7,4.1
		c0.7,10.6,6.8,16.9,15.9,20.7c5.5,2.3,11.3,3.8,17.1,5.3c2.6,0.7,7,3,7.8,0.2c0.8-2.9-3.9-4-6.7-4.7c-6.2-1.5-9.7-5.1-10.8-11.4
		c-0.4-2.5-1.4-4.9-2.4-7.2c-1.2-2.8,0-3.1,2.4-2.8c6.2,1,12.6,7,14,13c1.8,7.8,6.3,11.5,15.1,12.2c0-2.1-1.5-3.4-2.9-4.3
		c-5.9-3.9-8.2-9.3-7.3-16.3c0.1-1.2-0.4-2.5-0.6-3.7c-0.2-1.2-1-2.7,0.4-3.4c1.2-0.7,2.4,0.4,3.4,1.1c5.4,3.3,8.1,9,6.7,15.3
		c-0.8,3.8,0.4,6.3,3.3,8.3c5,3.5,10.4,3.8,16.1,2.4c1.4-0.3,2.8-0.9,2.6-2.9c-0.4-4.3-7.7-13-11.9-13.5
		c-7.5-0.9-10.2-6.9-14.2-12.2C130.7,120.3,137.2,122.2,140.1,131.3z M271.5,397c-0.1-8.2-4.1-18-10.5-26.8
		c-11.1-15.3-8.3-15.7-19.6,0.1c-10.2,14.2-13.5,29.8-7.5,46.7c2.6,7.5,2.6,7.4,9,3.2c3.1-2,4-3.3,1.7-7c-7.8-12.1-6-27.1,3.8-37.5
		c1.6-1.7,2.9-2.9,5.3-0.6c9.3,9.1,11.7,25.3,5.1,36.6c-3.7,6.4-3.6,6.2,2.9,10.2c2.9,1.8,4.5,1.4,5.7-1.8
		C270,413.6,271.4,406.9,271.5,397z M380,118.2c9.4-7,14.9-8,21.4-4.4c0.7,0.4,1.7,1,1.9,1.7c0.3,1.1-0.9,1.3-1.7,1.7
		c-5.1,2.3-10,5.2-16,3.8c-2.9-0.6-5.4,0.7-7.2,2.9c-4.2,5.2-8.4,10.4-12.4,15.8c-2,2.5-1,4.2,1.8,5.4c8,3.4,17.9-1.2,17.9-10.2
		c0-7.1,7.5-13.8,14.6-14.4c2-0.2,3.7-0.2,2.7,2.9c-2.5,7.2-4.8,14.5-12.7,18c-1.3,0.6-2.4,1.6-3.4,2.6c-0.9,0.9-1.1,1.8,0.5,2.5
		c4.2,1.7,14.9-2.8,15.3-7.4c0.8-8.1,6.3-12.2,11.6-16.8c0.7-0.6,1.2-1.5,2.2-1.2c1.4,0.4,1.1,1.7,1.1,2.8
		c-0.3,7.9-1.9,15.2-10.4,18.6c-1.1,0.4-2.7,1.1-2.4,2.6c0.4,1.7,2.3,1.6,3.6,1.4c4.8-0.7,9.6-2,14.1-3.9c5.9-2.6,9.4-13.1,6.2-18.7
		c-0.4-0.7-1.3-1.1-2.1-1.5c-12.6-6-25.8-10.3-39.4-13.8c-2.6-0.7-4.2,0.1-5,2.7C381.6,113,380.9,115,380,118.2z M165.5,396.5
		c0.4,14.5,7.1,25.9,15.9,36.3c1,1.2,1.7,4.2,4.3,1.3c1.7-1.9,3.3-3.3,0.6-5.7c-3-2.6-5.3-5.9-7.4-9.3c-11.2-19.1-6.2-38.6,13-49.6
		c7.5-4.3,15.6-7.5,23.7-10.6c5.4-2.1,8.7-5.7,9.9-11.2c0.3-1.2,0.8-2.7-0.3-3.6c-1.2-1.1-2.4,0.2-3.4,0.8
		c-3.6,2.3-7.5,3.4-11.5,4.6c-8.5,2.7-16.7,6.1-23.9,11.3C174.1,369.7,165.9,381,165.5,396.5z M276.4,341.8
		c0.5,8.5,3.1,13.9,9.9,16.9c9.1,4,18.7,6.9,27.1,12.5c7.8,5.2,13.4,11.9,15.4,21.4c2.5,12-1.5,22.1-8.5,31.4c-1.5,2-3.2,4-4.9,5.8
		c-2.1,2.2,0,3,1.2,4.2c1.4,1.5,2.3,1.7,3.7-0.2c4.5-6.2,9.4-12,12.4-19.1c6.7-15.4,5.6-29.9-5.1-43.3c-6.6-8.3-15.3-13.6-24.8-18
		C294.4,349.5,284.8,348.7,276.4,341.8z M182.8,403.3c-0.2,8.6,3.9,15.1,9,21.3c1.6,1.9,3,1.9,5.1,0.4c2.9-2,1.6-3.7,0.3-5.8
		c-6.4-10.3-6.3-20.6,0.2-28.2c2.8-3.3,5.4-4.1,8.3-0.1c6.4,8.9,8.5,18.2,3.6,28.5c-0.7,1.5-2.4,2.9-0.5,4.8c2.9,3,5.6,6.2,8.4,9.2
		c0.9,1,1.8,2,3.2,1.1c3.1-1.9,7.1-3.1,8.7-6.2c1.3-2.4-2-4.7-3.3-7c-6.9-11.4-11.6-23.6-14.2-36.8c-0.5-2.4-0.1-6.3-4.2-5.7
		C196.2,380.6,182.2,388.5,182.8,403.3z M290.5,407.1c0.3-1.8,0.5-4.8,1.5-7.5c1.8-4.9,3.5-10.4,9.5-11.3c3.5-0.5,8.1,7.7,8.6,13.9
		c0.5,6.6-1,12.6-5.3,17.8c-1.7,2.1-0.9,3.5,0.7,5.1c1.3,1.3,2.6,2,4.2,0.4c6.8-7.1,11.4-15.3,10-25.3
		c-1.7-12.2-10.7-17.6-21.7-20.8c-4.2-1.2-5.8-0.2-6.6,4.2c-2.6,14.2-7.6,27.6-15.8,39.5c-3,4.3-2.4,6.4,2,8.2
		c2.2,0.9,4.1,4.7,6.3,3c3.8-2.9,7.1-6.7,10-10.6c1.7-2.3-1.3-4.6-1.9-6.9C291.3,413.9,290.8,411,290.5,407.1z M131.9,366.9
		c-1.5-0.9-2.6-1.6-3.7-2.2c-6.3-3.7-7-3.5-9.2,3.2c-1.6,4.7-4.3,8.3-8.9,10.4c-3.6,1.6-6,0.5-7-3.3c-1.7-6-0.1-11.2,4.5-15.2
		c3.2-2.8,2.1-3.9-1-5c-4.6-1.6-9.3-1.4-14-1.3c-3.4,0-3.9,1.2-1.8,3.8c7,8.8,11.3,18.9,13.4,29.9c0.5,2.5,1.7,4.2,4.4,4.8
		c13.1,2.8,26.1,3.2,39-1.4c4.8-1.7,6.6-5.1,7.5-9.6c1-5.4-2.8-6.4-6.5-7.5c-3.8-1.1-4.9,1-5.9,4.3c-2.3,7.8-9.3,12.8-16.9,12.8
		c-4.3,0-6.4-1.9-6.5-6.1C119,375.6,123.9,370.4,131.9,366.9z M371.9,367.7c7.6,2.6,11,8.5,11.6,16c0.4,5-1.8,7-6.7,6.9
		c-8-0.2-15.1-5.7-16.8-13.6c-0.6-2.9-1.2-5.1-4.6-3.7c-3.2,1.3-8.2,0.8-7.9,6.4c0.4,6.5,3.3,9.6,9.5,11.6
		c12.6,4.1,25.3,2.9,38.1,0.8c2.7-0.5,3.3-2.2,3.6-4.5c1.5-10.4,5.6-19.8,11.3-28.5c1-1.5,3.2-2.5,2.7-5.1c-5.1-0.6-10.1-1-15.1,0.3
		c-4.7,1.3-4.9,2.7-1.7,6.3c3.9,4.4,5.3,9.4,3.4,15c-1.1,3.2-3.2,4.1-6.4,2.8c-5.5-2.3-8.6-6.4-9.7-12.2c-0.8-3.9-3-4.6-6.3-2.9
		C375,364.3,373,365,371.9,367.7z M143.8,90.1c3.9-6.4,7.6-12.9,11.9-19.1c2.5-3.6,0.4-4.4-2.2-5.1c-8.2-2.2-16.5-1.3-24.8-0.9
		c-1.6,0.1-1.7,1.3-1.9,2.2c-2,9.4-4,18.7-3.7,28.4c0.1,2.6,0.8,5.1,3.7,6c4.5,1.4,9.2,1.9,12.5-2.3c3.5-4.4,0.3-7.7-2.6-10.8
		c-1.1-1.2-2.2-2.5-3-3.9c-2.9-5.2-2.4-10.4,0-15.6c0.8-1.7,1.8-2.9,3.3-0.3C140.7,75.4,147,81.1,143.8,90.1z M375.8,93.4
		c1.9-6.7,1.5-13.2,0.9-19.7c-0.7-8.1-0.9-8.1-8.8-9.1c-14.1-1.9-22.7,3.9-25,16.8c-0.6,3.6-0.8,7.1,3.8,8.2c3.9,1,9.2-1.7,9.1-5.5
		c-0.4-8.3,6-11.4,10.7-15.8c1.6-1.5,2.7-1.6,3.3,0.9c1.6,6.1-1.6,14.1-7,17.5c-1.3,0.8-3.2,0.9-3.5,3.1
		C364.8,90.5,370.5,90.4,375.8,93.4z M312.1,440.9c-0.1-2.5-3.8-4.3-5.9-2.8c-3.5,2.5-6.9,5.3-10.4,7.9c-2.3,1.7-4.9,3-7.4,0.9
		c-3.5-2.8-6-2.1-8.3,1.4c-0.9,1.3-2.3,2.3-3.5,3.4c-6,5.8-6,5.7,1.1,10.5c2.8,1.9,5.1,4.3,9.1,1.7c8.5-5.6,16.5-11.7,23.3-19.4
		C310.9,443.4,312,442.4,312.1,440.9z M194.4,436.8c-2.2,0.6-3.4,2-4.5,3.3c-1.5,1.7,0.4,2.6,1.3,3.5c7.3,7,14.7,13.9,23.1,19.5
		c3.8,2.5,15.5-0.5,15.8-4.8c0.4-5.2-5.8-7-8.6-10.8c-1.3-1.7-3.1-3-5-1c-3.6,3.8-6.8,2-10-0.3c-3-2.2-5.9-4.7-8.9-7
		C196.7,438.3,195.4,437.5,194.4,436.8z M259.6,58.5c5.6-4.5,6.7-7.7,4.5-13.7c-2.1-5.9-5.9-10.7-10.3-15.1
		c-1.5-1.6-2.9-1.8-4.7-0.5c-5,3.5-9,7.8-11.1,13.7c-1.3,3.7-1.3,7.3,2,10.5c1.7-2,2.1-4.3,1.9-6.3c-0.5-5.9,2.5-9.9,6.5-13.6
		c0.8-0.7,1.4-2.2,2.5-1.5c0.7,0.4,1.2,1.8,1.4,2.8c0.9,4.9-0.9,8.8-4.4,12.1c-4,3.8-4.2,10.4-0.6,14.6c1.8,2.1,4.1,3.6,6.6,1.7
		c2.4-1.8,3.1-4.5,0.6-7c-4-4.2-2.5-8.7-0.9-13.2c1.1-3.1,2.7-2.3,4.1-0.3c2.4,3.2,3.4,6.7,2.4,10.7
		C259.6,54.9,258.5,56.3,259.6,58.5z M290,476.8c-3.7-4.3-7.2-3.1-10.9-0.8c-2.5,1.5-5.3,2.4-7.8,3.9c-6.2,3.7-12,3.7-17.2-1.6
		c-2.5-2.6-4.5-2.2-6.7,0.3c-4.3,4.8-9.2,5-14.7,2.1c-3.8-2-7.9-3.7-11.5-6c-2.8-1.7-5.5-0.8-6.7,1.1c-1.5,2.5,2,2.6,3.4,3.6
		c1,0.7,2.2,1.2,3.4,1.6C245,490.7,267.9,488.7,290,476.8z M302.7,33.2c-3.4-2.8-6.6-5.4-9.7-8.1c-2.3-2.1-4.4-2.5-7.3-0.8
		c-7.3,4.3-14.5,3.6-21.3-1.4c-1.9-1.4-3.5-1.6-5.4,0.5c5.9,3.7,10.6,8.6,14.6,14.2c2.7,3.8,6.1,4.2,10,2.8
		C290,38.2,296.1,35.7,302.7,33.2z M434.6,178.1c0-3.1-1.9-3.9-2.9-5.4c-3.6-5.3-3.8-13.2-0.1-17.3c4.3-4.8,8.5-1.8,12.7,0.3
		c0.3,0.2,0.7,0.3,1,0.5c1.6,0.7,2.5-0.1,2.8-1.5c0.5-2.6,1.4-5.6-0.4-7.8c-1.7-2.1-4.6-1.3-6.6-0.4c-8.3,3.6-16.2,8.1-24.8,11
		c-2.7,0.9-4.5,4.2-2.2,6C420.4,168.5,425.7,175.2,434.6,178.1z M52.7,146.3c1.5,1.7,1.5,3.3,1.7,5c0.6,6.3,0.6,6.3,6.1,3.3
		c6.5-3.6,11.1-1.6,13.1,5.6c1.3,4.7-0.1,8.9-2.8,12.8c-1.3,1.8-2.9,3.5-4.7,5.6c3.6,0.9,5.4-1.1,7.1-2.8c4.1-4.1,8.3-8,13.4-10.9
		c3.9-2.3,2.5-3.7-0.4-5.6c-5.2-3.3-10.2-6.7-15.3-10.2C65.4,145.2,59.7,144,52.7,146.3z M200.7,33.9c7.1,2.2,13.3,4.6,19.3,7.5
		c1.8,0.8,3.7,1,4.8-0.9c4.1-6.8,9.3-12.3,16.4-16.1c0.6-0.3,1.2-0.9,0.9-1.7c-0.5-1-1.4-1.1-2.3-0.7c-1.1,0.6-2.1,1.3-3.2,2
		c-6.2,3.6-12.5,4.5-19,0.9c-1.6-0.9-2.9-1.3-4.5-0.2C208.9,27.2,204.6,29.6,200.7,33.9z M483.5,250.3c0.3-7.3-1.6-14.3-5.5-20.9
		c-1-1.6-2.1-4-4.5-1.8c-1.6,1.5-4,3-1.3,5.8c2.3,2.4,3.8,5.3,4.8,8.4c3.1,9.7,1.8,18.6-4.7,26.5c-2.8,3.4,0.2,5.2,1.8,6.6
		c2.5,2.2,3.2-1.1,4-2.5C482.1,265.8,483.7,258.4,483.5,250.3z M447.9,367.4c-0.8-1.8,0.8-4.9-2.9-4.7c-2.7,0.2-4.7,1.3-4.2,4.8
		c0.5,3.8-0.4,7.5-2,11c-3.6,8-9.3,13.8-17.9,16.1c-4,1.1-3.7,3.8-2.9,6.3c1,3.1,3.4,1.1,4.9,0.3C437,394.3,445.2,382.9,447.9,367.4
		z M56.5,362.3c-3.3,0.6-1.9,3.6-1.6,5.4c2.6,15,10.3,26.5,24.3,33.2c1.5,0.7,4,3.6,5.2-0.2c0.8-2.4,0.4-4.8-2.9-6
		c-12.8-4.6-19.6-13.8-19.8-27.5C61.7,363.7,59.5,363.1,56.5,362.3z M18.7,251.4c-0.4,7.3,1.9,14.5,5.7,21.2c0.8,1.4,1.6,3.9,4,2
		c1.6-1.3,3.4-3,1.9-5.5c-0.7-1.1-1.5-2-2.2-3.1c-5.7-9.4-6-19.1-0.8-28.8c0.8-1.4,1.9-2.7,2.8-4c2-3.1-0.5-5-2.3-6.3
		c-1.9-1.4-2.6,1.2-3.3,2.4C20.4,235.8,18.5,243.1,18.7,251.4z M111.8,93.2c-0.3-2.6,1-6.4-4-7.1c-4.2-0.6-7.4-0.3-8,5.2
		c-0.3,3-2.6,5.5-4.5,7.9c-2.8,3.5-1.3,6.6,3.1,7.2C106.7,107.5,111.6,102.9,111.8,93.2z M456.4,227.7c-6.5,13.6-7.2,27.4-2,41.4
		c0.6,1.8,0.6,5.4,4.4,3.6c3.2-1.5,3.1-3.5,1.4-6.5c-5.3-9.5-5.7-19.4-0.7-29C461.9,232.9,462.1,230.1,456.4,227.7z M406.9,390.3
		c2.5-0.1,4.5-0.6,4.9-4.1c1.3-11.9,7.8-20.3,18.6-25.3c2.3-1.1,3-2.2,2-4.6c-1.1-2.4-2.5-2.9-4.7-1.5
		c-12.5,7.7-20.1,18.9-23.1,33.2C404.3,389.7,404.5,391,406.9,390.3z M72.3,350.9c-0.9,2.5-1.6,4.4-2.3,6.3
		c-0.5,1.4-0.4,2.6,1.1,3.2c12.3,5,18.4,14.6,20.4,27.3c0.1,0.5,0.3,1.1,0.7,1.4c1.5,1.3,3.4,1.5,5.1,1c2.1-0.7,0.7-2.5,0.4-3.7
		c-3.1-12.6-10.1-22.7-20.6-30.3C75.3,354.7,72.7,354.1,72.3,350.9z M51,251c0.2-6.9-0.8-13.4-3.6-19.6c-0.6-1.3-0.8-3.8-3.1-2.6
		c-1.9,1-4.4,2.4-2.9,5.5c0.6,1.1,1.3,2.2,1.8,3.3c4.3,9.7,4.2,19.3-1,28.6c-1.7,3.1-1.4,5.3,1.6,6.6c3.7,1.6,3.5-2.1,4.3-3.9
		C50.4,263.1,51.3,257.1,51,251z M261.8,430.5c0-1.9-10.2-8.6-11.6-8.1c-8.8,3.3-9.9,7.6-3.7,14.6c4.8,5.4,4.8,5.4,9.5,0.1
		C258,434.8,260,432.5,261.8,430.5z M340.6,52.6c0-2.3-4-11.3-6.7-15.3c-2-2.9-11.3-2.6-13.1,0.4c-0.4,0.7-0.3,1.5,0.2,2
		c5,5,8.9,11,14.5,15.3c1,0.8,2.2,1.4,3.5,0.8C340.4,55.1,340.8,53.9,340.6,52.6z M278,440.6c-0.3-0.5-0.5-0.9-0.7-1.3
		c-3.9-5.4-9.3-5.7-13.7-0.8c-1,1.1-1.8,2.3-2.9,3.2c-4,3.3-3.9,6,0.5,9.2c2.8,2,4.4,2.9,6.9-0.2c2.3-2.9,5.4-5.3,8.1-8
		C276.7,442.1,277.3,441.4,278,440.6z M472.5,251.9c0-5.2-1.1-9.5-3.8-13.3c-1.3-1.9-2.3-1.8-3.6,0.2c-3.9,5.6-3.8,18.6,0,24.4
		c1.6,2.3,2.5,2,3.8-0.2C471.1,259.4,472.8,255.7,472.5,251.9z M245.9,445.9c-2.3-2.4-4.6-4.9-6.9-7.4c-5.2-5.6-5.1-5.4-11.4-0.8
		c-3.3,2.4-2.7,4-0.1,6.1c2.8,2.3,5.3,4.8,8.1,7.2c1.1,0.9,2.1,2.9,4,1.3C241.8,450.5,244.3,449,245.9,445.9z M404.5,102.7
		c2.2,0.2,3.8,0.3,4.4-1.3c0.7-1.8-1.4-1.7-2.2-2.5c-2.4-2.4-3.5-5.4-4.9-8.3c-0.9-1.9-0.3-5.7-2.8-5.3c-2.3,0.4-5,0.3-7.3,1.5
		c-3.5,1.9-5.9,8-3.6,9.1C393.7,98.5,399.5,100.7,404.5,102.7z M39.9,251.2c0.3-4.3-0.7-8.3-2.6-12.1c-1.4-2.8-2.6-2.3-4.2-0.1
		c-4.4,6.3-4.5,16.7-0.3,23.2c1.8,2.7,3.2,3.4,4.7-0.1C39.1,258.7,40.3,255.1,39.9,251.2z M434.6,370.3c0.4-3.2-0.4-4.8-3.8-3
		c-7,3.7-11.1,9.7-12.8,17.3c-0.7,3.3,0.5,5.1,4.1,3.4C429.5,384.4,433.6,378.4,434.6,370.3z M84.6,385.1c0.2-6-8.1-16.8-14-18.4
		c-3.1-0.8-2.8,1.1-2.8,3c0,6.8,6.4,15.8,12.7,18.2C83.2,389,84.7,388.5,84.6,385.1z M372.1,434.5c-0.4-7.5-6.5-14.6-13.8-16
		c-2.5-0.5-3.8-0.3-3.3,2.8c1.1,6.7,8,14.2,14.3,15.5C371.4,437.3,372.6,437.1,372.1,434.5z M251.1,412.5c5.2-7.2,6.7-14.6,3.3-22.7
		c-0.6-1.6-1-4-3.2-3.9c-2.1,0.1-2.4,2.5-3,4.1C245.6,397.7,246.4,405,251.1,412.5z M165.3,357.2c-7.1,1.2-14,1.7-21,1.9
		c-1,0-2.1,0.5-3,1c-1.7,0.9-1.6,2.4-1.5,4.2c0.2,2.5,1.9,1.6,3.1,1.7c4.1,0.1,8.3,0.3,12.4,0.3
		C161.1,366.2,163.7,363.9,165.3,357.2z M130.8,433.8c-0.3,2.2,0.3,3.9,3.2,2.7c6.4-2.7,11.4-7,13.2-14.1c1-4-0.7-4.8-4.3-3.7
		C137.1,420.5,131.4,427.4,130.8,433.8z M337.1,357.3c1,5.3,3.5,8.6,8.8,8.9c3.9,0.2,7.9-0.3,11.8-0.1c2.8,0.2,4.7-0.4,4.9-3.3
		c0.2-3.3-2.5-3.6-4.8-3.7C350.9,359,344.2,358.4,337.1,357.3z M277,469.5c-3.7-2-6.9-3.4-9.7-5.3c-3.9-2.7-5.5,0.8-7.6,2.6
		c-1.3,1.1-4.2,2.4-2.7,4.5c1.6,2.3,4.3,3.9,7.5,3.5c1.2-0.2,2.5-0.5,3.6-1C270.8,472.5,273.6,471.1,277,469.5z M226,469.8
		c3.3,1.5,5.7,2.7,8.1,3.8c3,1.4,5.9,1.7,8.7-0.3c2.4-1.7,3.3-2.9,0.5-5.7c-4.1-4.2-7.6-5.4-12.1-1.1
		C230.1,467.7,228.3,468.4,226,469.8z M95.6,81.2c1-0.7,1.7-0.8,1.8-1.2c5-9.8,11.4-17.9,23.5-18.8c1.7-0.1,1.7-1.8,1.7-3
		c-0.1-1.6-1.4-1.3-2.5-1.2C110,57.4,97.1,69.7,95.6,81.2z M416.6,98c0,8.8,1.8,11.7,8,14.3c2.9,1.2,3.4,0.4,3.3-2.4
		c-0.1-4.6-4-4-6.6-4.8c-2.2-0.7-4.2-1.3-4-4.2c0.2-3.2,2.6-2.4,4.4-2.3c4.3,0.4,2.9-1.8,1.7-3.7c-1.3-2.1-2.6-5.3-5.3-4.7
		c-2.8,0.7-1.1,4-1.5,6.2C416.5,96.9,416.6,97.4,416.6,98z M405.6,81.8c0.9-1.3,1.3-1.6,1.3-1.9c-1-9.7-14.5-22.3-24.2-22.8
		c-1.1-0.1-2.4-0.1-2.5,1.3c-0.1,1.6,1.3,1.9,2.6,2.3C393.6,63.7,401.7,69.9,405.6,81.8z M466.7,306.8c-1.5-2.5-2-6.8-5.4-7
		c-2.8-0.2-6.9,2-7.2,5.2c-0.2,2.8,1.6,6.3,4.7,7.8C460.3,313.4,466.6,308.6,466.7,306.8z M56,327.7c-1.6-3.5-5.1-4.7-7.9-4.6
		c-3.9,0.1-4.5,4.9-4.5,7.5c0,4.2,5.1,4.9,7.7,4.8C54.9,335.2,54,330.2,56,327.7z M451.7,335.7c2.1-2.3,7.1-1,7-5.3
		c-0.1-2.8-0.7-7.4-4.6-7.3c-2.7,0-7.5,0.9-7.6,4.3C446.4,330,447.7,334,451.7,335.7z M40.6,202.4c2.2-0.2,8.1-4.6,8-5.6
		c0-2.1-4.7-8.1-5.9-7.4c-2.6,1.6-7.4,2.1-7.2,5.4C35.8,197.4,37.6,201.2,40.6,202.4z M41.1,299.2c-3.3,1.8-5.3,4.9-5.2,7.8
		c0.1,3.6,4.5,4.1,7.2,5.6c1,0.5,6.1-6.3,5.5-7.7C47.2,301.7,43.5,301.3,41.1,299.2z M461.8,202.3c1.2-0.1,4.9-5.8,4.8-7.4
		c-0.1-1.6-6.2-6.3-7.8-5.6c-2.8,1.2-3.6,4.2-4.6,6.8C453.9,197.1,460.7,202.4,461.8,202.3z M251.8,452.1c-1.7-0.1-7,4.4-7.2,5.7
		c-0.2,1.2,5.7,7.6,6.6,7c2.8-1.6,6.5-3.7,6.6-6.5C258.1,455.5,254.1,453.8,251.8,452.1z M451.6,344.4c2.1,2.6-1.1,6.8,2.9,8.1
		c2.7,0.8,8.1-7.1,8-11.2c0-1.8-0.8-3.1-2.6-2.5C456.9,340,452.7,340,451.6,344.4z M25.3,207.5c0,2.6-0.1,5.3,1.9,6.2
		c2.4,1.1,3.3-2,5-3.2c2.6-1.9,3.4-4.1,1.1-6.8c-1.5-1.7-1.7-5.6-4-5.1c-2.9,0.6-3.2,4.4-3.9,7.2C25.3,206.4,25.3,207.1,25.3,207.5z
		 M477,208.2c-0.3-3.6,0-8.5-4.3-9.1c-2.7-0.3-3.7,4.7-5.2,7.5c-0.4,0.8,5.7,8.2,6.6,7.9C477,213.4,476.6,210.7,477,208.2z
		 M476.9,294.7c0-2.7,0.2-5.9-1.8-6.8c-2.5-1.1-3.3,2.5-5.2,3.7c-0.1,0.1-0.2,0.3-0.4,0.4c-3.2,2.9-1.2,5.6,0.4,8.2
		c0.8,1.3,1.5,3.8,3.2,3.1c2.8-1,3.2-4.1,3.6-6.8C476.9,295.7,476.9,295,476.9,294.7z M40.7,337.8c-0.8,4.8,0.2,8.7,3.3,12
		c1.2,1.3,2.6,3.1,4.5,2.6c1.8-0.5,0.9-2.8,1.5-4.2c1.8-4.3,0.5-6.8-4-8C44.2,339.7,42.7,338.7,40.7,337.8z M25.2,294.3
		c0.6,3.2,0.3,7.1,4.1,9c0.8,0.4,5.9-7,5.3-8.3c-1.4-3.2-3.9-6.4-6.8-7.1C25.7,287.4,25.5,291.6,25.2,294.3z M55.6,175.7
		c-3.7-2.1-2.4-11.7-10.4-6.9c-4.7,2.9-0.9,6.1,0.3,8.2C49.2,183,52,175.4,55.6,175.7z M454.4,179.6c3.1-2,4.4-5.2,4.5-8.1
		c0.2-3.4-3.8-4.2-6-4.1c-3.9,0.2-4.6,4.6-4.9,7.3C447.6,178.3,452.1,177.9,454.4,179.6z"/>
</g>
</svg>
