<?xml version="1.0" encoding="utf-8"?>
<!-- Generator: Adobe Illustrator 25.1.0, SVG Export Plug-In . SVG Version: 6.00 Build 0)  -->
<svg version="1.1" id="Layer_1" xmlns="http://www.w3.org/2000/svg" xmlns:xlink="http://www.w3.org/1999/xlink" x="0px" y="0px"
	 viewBox="0 0 122.9 101.1" style="enable-background:new 0 0 122.9 101.1;" xml:space="preserve">
<style type="text/css">
	.st0{fill:#FFFFFF;}
</style>
<g>
	<path class="st0" d="M4.4,63.6C1.6,60.9,0.1,57.2,0,53.5c-0.1-3.7,1.3-7.4,4-10.3c2.8-2.9,6.4-4.4,10.1-4.4c3.7-0.1,7.4,1.3,10.3,4
		l24.8,23.9L98.5,4l1.8,1.3L98.5,4c0.1-0.2,0.3-0.3,0.5-0.5C102,1,105.6-0.2,109.2,0v0l0.2,0c3.6,0.2,7.2,1.9,9.8,4.8
		c2.7,3,3.9,6.7,3.7,10.4h0l0,0.2c-0.2,3.6-1.8,7-4.6,9.6L59,97.1l0,0c-0.1,0.1-0.2,0.3-0.4,0.4c-2.8,2.4-6.3,3.6-9.8,3.6
		c-3.5-0.1-7-1.4-9.7-4L4.4,63.6L4.4,63.6z"/>
</g>
</svg>
