<?xml version="1.0" encoding="utf-8"?>
<!-- Generator: Adobe Illustrator 25.1.0, SVG Export Plug-In . SVG Version: 6.00 Build 0)  -->
<svg version="1.1" id="Layer_1" xmlns="http://www.w3.org/2000/svg" xmlns:xlink="http://www.w3.org/1999/xlink" x="0px" y="0px"
	 viewBox="0 0 512 512" style="enable-background:new 0 0 512 512;" xml:space="preserve">
<style type="text/css">
	.st0{fill:#8A9CFE;}
	.st1{fill:#FDFDFD;}
</style>
<g id="_x39_1-discord">
	<g>
		<path class="st0" d="M608.6-28v723c-101.5-89.7-69.1-60-187-169.7l7.7,74.6H-14c-45.5,0-82.6-37.1-82.6-83V-28
			c0-45.9,37.1-83,82.6-83h540C571.5-111,608.6-73.9,608.6-28z"/>
		<path class="st1" d="M435.7,119.1c-58-43.5-113.2-42.3-113.2-42.3l-5.6,6.4c68.5,21,100.3,51.2,100.3,51.2
			C321.5,82,209,82,116.2,122.7c-14.9,6.8-23.8,11.7-23.8,11.7s33.5-31.8,106-52.8l-4-4.8c0,0-55.2-1.2-113.2,42.3
			c0,0-58,105.2-58,234.9c0,0,33.9,58.4,122.9,61.3c0,0,14.9-18.1,27-33.5c-51.2-15.3-70.5-47.5-70.5-47.5
			c5.9,4.1,15.7,9.5,16.5,10.1c68,38.1,164.6,50.6,251.5,14.1c14.1-5.2,29.8-12.9,46.3-23.8c0,0-20.2,33-72.9,48
			c12.1,15.3,26.6,32.6,26.6,32.6c89.1-2.8,123.3-61.3,123.3-61.3C493.8,224.3,435.7,119.1,435.7,119.1z M183.1,316.6
			c-22.6,0-41.1-20.1-41.1-44.7c0-24.6,18.1-44.7,41.1-44.7c23,0,41.5,20.1,41.1,44.7C224.2,296.4,206,316.6,183.1,316.6z
			 M330.2,316.6c-22.6,0-41.1-20.1-41.1-44.7c0-24.6,18.1-44.7,41.1-44.7c23,0,41.1,20.1,41.1,44.7
			C371.3,296.4,353.1,316.6,330.2,316.6z"/>
	</g>
</g>
<g id="Layer_1_1_">
</g>
</svg>
